<svg width="180" height="75" viewBox="0 0 180 75" fill="none" xmlns="http://www.w3.org/2000/svg">
<path d="M114.735 48.83C114.805 49.04 114.84 49.2617 114.84 49.495C114.84 49.9617 114.677 50.3467 114.35 50.65C114.047 50.9533 113.685 51.105 113.265 51.105C112.938 51.105 112.635 51.0117 112.355 50.825C112.098 50.615 111.888 50.335 111.725 49.985L109.555 44.84H98.74L96.605 50.02C96.4883 50.37 96.29 50.6383 96.01 50.825C95.7533 51.0117 95.4617 51.105 95.135 51.105C94.645 51.105 94.2717 50.9767 94.015 50.72C93.7583 50.4633 93.63 50.1133 93.63 49.67C93.63 49.5767 93.6533 49.39 93.7 49.11L102.625 27.48C102.788 27.1067 103.01 26.8267 103.29 26.64C103.593 26.43 103.932 26.3483 104.305 26.395C104.655 26.395 104.97 26.4883 105.25 26.675C105.53 26.8617 105.728 27.13 105.845 27.48L114.735 48.83ZM108.225 41.655L104.13 31.855L100.07 41.655H108.225ZM127.076 32.24C127.683 32.24 128.208 32.4033 128.651 32.73C129.094 33.0333 129.316 33.4183 129.316 33.885C129.316 34.445 129.164 34.8767 128.861 35.18C128.581 35.46 128.231 35.6 127.811 35.6C127.601 35.6 127.286 35.53 126.866 35.39C126.376 35.2267 125.991 35.145 125.711 35.145C124.988 35.145 124.276 35.4017 123.576 35.915C122.899 36.405 122.339 37.0933 121.896 37.98C121.476 38.8433 121.266 39.8117 121.266 40.885V49.32C121.266 49.7867 121.103 50.1833 120.776 50.51C120.473 50.8367 120.076 51 119.586 51C119.096 51 118.699 50.8483 118.396 50.545C118.093 50.2183 117.941 49.81 117.941 49.32V34.34C117.941 33.8733 118.093 33.4767 118.396 33.15C118.723 32.8233 119.119 32.66 119.586 32.66C120.076 32.66 120.473 32.8233 120.776 33.15C121.103 33.4767 121.266 33.8733 121.266 34.34V36.125C121.779 34.9817 122.549 34.06 123.576 33.36C124.603 32.6367 125.769 32.2633 127.076 32.24ZM136.004 49.32C136.004 49.7867 135.841 50.1833 135.514 50.51C135.187 50.8367 134.791 51 134.324 51C133.857 51 133.461 50.8367 133.134 50.51C132.831 50.1833 132.679 49.7867 132.679 49.32V26.78C132.679 26.3133 132.842 25.9167 133.169 25.59C133.496 25.2633 133.892 25.1 134.359 25.1C134.826 25.1 135.211 25.2633 135.514 25.59C135.841 25.9167 136.004 26.3133 136.004 26.78V49.32ZM144.402 49.32C144.402 49.7867 144.238 50.1833 143.912 50.51C143.608 50.8367 143.212 51 142.722 51C142.255 51 141.858 50.8367 141.532 50.51C141.228 50.1833 141.077 49.7867 141.077 49.32V34.165C141.077 33.6983 141.228 33.3017 141.532 32.975C141.858 32.6483 142.255 32.485 142.722 32.485C143.212 32.485 143.608 32.6483 143.912 32.975C144.238 33.3017 144.402 33.6983 144.402 34.165V49.32ZM142.722 30.175C142.045 30.175 141.555 30.0583 141.252 29.825C140.972 29.5683 140.832 29.1717 140.832 28.635V28.075C140.832 27.515 140.983 27.1183 141.287 26.885C141.613 26.6517 142.103 26.535 142.757 26.535C143.41 26.535 143.877 26.6633 144.157 26.92C144.46 27.1533 144.612 27.5383 144.612 28.075V28.635C144.612 29.195 144.46 29.5917 144.157 29.825C143.853 30.0583 143.375 30.175 142.722 30.175ZM154.151 35.915V46.345C154.151 47.5117 154.676 48.095 155.726 48.095C155.89 48.095 156.111 48.06 156.391 47.99C156.671 47.8967 156.893 47.85 157.056 47.85C157.36 47.85 157.616 47.9783 157.826 48.235C158.036 48.4917 158.141 48.8183 158.141 49.215C158.141 49.705 157.861 50.125 157.301 50.475C156.741 50.825 156.111 51 155.411 51C154.641 51 153.93 50.9183 153.276 50.755C152.646 50.5917 152.075 50.1833 151.561 49.53C151.071 48.8533 150.826 47.8383 150.826 46.485V35.915H148.796C148.353 35.915 147.98 35.775 147.676 35.495C147.396 35.1917 147.256 34.8183 147.256 34.375C147.256 33.9317 147.396 33.57 147.676 33.29C147.98 33.01 148.353 32.87 148.796 32.87H150.826V29.93C150.826 29.4633 150.978 29.0667 151.281 28.74C151.608 28.4133 152.016 28.25 152.506 28.25C152.973 28.25 153.358 28.4133 153.661 28.74C153.988 29.0667 154.151 29.4633 154.151 29.93V32.87H157.056C157.5 32.87 157.861 33.0217 158.141 33.325C158.445 33.605 158.596 33.9667 158.596 34.41C158.596 34.8533 158.445 35.215 158.141 35.495C157.861 35.775 157.5 35.915 157.056 35.915H154.151ZM178.406 41.13C178.383 41.55 178.208 41.9117 177.881 42.215C177.555 42.495 177.17 42.635 176.726 42.635H164.406C164.57 44.3383 165.211 45.7033 166.331 46.73C167.475 47.7567 168.863 48.27 170.496 48.27C171.616 48.27 172.526 48.1067 173.226 47.78C173.926 47.4533 174.545 47.0333 175.081 46.52C175.431 46.31 175.77 46.205 176.096 46.205C176.493 46.205 176.82 46.345 177.076 46.625C177.356 46.905 177.496 47.2317 177.496 47.605C177.496 48.095 177.263 48.5383 176.796 48.935C176.12 49.6117 175.221 50.1833 174.101 50.65C172.981 51.1167 171.838 51.35 170.671 51.35C168.781 51.35 167.113 50.9533 165.666 50.16C164.243 49.3667 163.135 48.2583 162.341 46.835C161.571 45.4117 161.186 43.8017 161.186 42.005C161.186 40.045 161.583 38.33 162.376 36.86C163.193 35.3667 164.255 34.2233 165.561 33.43C166.891 32.6367 168.315 32.24 169.831 32.24C171.325 32.24 172.725 32.625 174.031 33.395C175.338 34.165 176.388 35.2267 177.181 36.58C177.975 37.9333 178.383 39.45 178.406 41.13ZM169.831 35.32C168.525 35.32 167.393 35.6933 166.436 36.44C165.48 37.1633 164.85 38.295 164.546 39.835H174.871V39.555C174.755 38.3183 174.195 37.3033 173.191 36.51C172.211 35.7167 171.091 35.32 169.831 35.32Z" fill="url(#paint0_linear)"/>
<rect width="75" height="75" rx="6" fill="url(#paint1_linear)"/>
<path d="M25.1732 32.3096L28.1794 37.5365L25.1732 42.7634L23.5489 45.5835L19.5245 52.5729H13.5L15.0031 49.9595L20.5306 40.3566L22.1549 37.5365L25.1732 32.3096Z" fill="white"/>
<path d="M51.1381 52.5729H45.0772L39.4285 42.7634L39.1497 42.265L36.4223 37.5365L36.1677 37.0867L32.313 30.3404L29.8038 34.7164L26.834 29.4895L30.1069 23.8129C30.3314 23.4226 30.6522 23.0969 31.0386 22.867C31.425 22.637 31.8639 22.5107 32.313 22.5001C32.7731 22.4968 33.2256 22.6186 33.6222 22.8526C34.0205 23.082 34.351 23.4134 34.5798 23.8129L39.186 31.7991L39.4648 32.3096L42.1922 37.0867L42.4832 37.5851L49.6229 49.9595L51.1381 52.5729Z" fill="white"/>
<path d="M37.7435 45.7298L34.5676 51.2606C34.3319 51.6547 34.003 51.9845 33.61 52.2208C33.2134 52.4548 32.761 52.5767 32.3008 52.5734C31.8434 52.5711 31.3945 52.4487 30.999 52.2184C30.6034 51.988 30.2749 51.6578 30.0462 51.2606L25.1975 42.7517L22.1913 37.5248L15.0031 25.1139L13.5 22.5005H19.5609L25.1611 32.31L28.1794 37.5369L32.3129 44.7209L34.7373 40.5029L37.7435 45.7298Z" fill="white"/>
<path d="M59.7685 49.9597L61.2716 52.5731H55.2107L49.6105 42.8487C49.4016 42.4848 49.2832 42.0758 49.2653 41.6563C49.2475 41.2369 49.3307 40.8192 49.5079 40.4388C49.685 40.0584 49.951 39.7264 50.2833 39.4709C50.6155 39.2154 51.0043 39.044 51.4166 38.9711C51.9748 38.8657 52.5141 38.6772 53.0167 38.4119C53.5267 38.1553 53.9898 37.8142 54.3865 37.403C54.9479 36.8446 55.386 36.174 55.6721 35.4347C55.9582 34.6955 56.086 33.9041 56.0471 33.1121C55.9481 31.6375 55.2902 30.2568 54.2083 29.2532C53.1263 28.2496 51.7024 27.6993 50.2287 27.715H40.9556L37.9373 22.5003H50.2287C53.1005 22.4798 55.8665 23.5857 57.9365 25.5819C60.0064 27.5781 61.2163 30.3066 61.308 33.185C61.3434 34.6531 61.0801 36.1131 60.534 37.4757C59.988 38.8384 59.1707 40.0751 58.1321 41.1105C57.4102 41.8257 56.5946 42.4391 55.7077 42.9338L59.7685 49.9597Z" fill="white"/>
<defs>
<linearGradient id="paint0_linear" x1="92.5" y1="16" x2="180" y2="60" gradientUnits="userSpaceOnUse">
<stop stop-color="#04AAEE"/>
<stop offset="1" stop-color="#2CD9C0"/>
</linearGradient>
<linearGradient id="paint1_linear" x1="0" y1="0" x2="75" y2="75" gradientUnits="userSpaceOnUse">
<stop stop-color="#01A6F1"/>
<stop offset="1" stop-color="#30DDBB"/>
</linearGradient>
</defs>
</svg>
